<?xml version="1.0" encoding="UTF-8" standalone="no"?>
<!-- Created with Inkscape (http://www.inkscape.org/) -->

<svg
   version="1.1"
   id="svg1"
   width="739.26666"
   height="153.37334"
   viewBox="0 0 739.26666 153.37334"
   sodipodi:docname="Logo OUI Horizontal Noir et Blanc.eps"
   xmlns:inkscape="http://www.inkscape.org/namespaces/inkscape"
   xmlns:sodipodi="http://sodipodi.sourceforge.net/DTD/sodipodi-0.dtd"
   xmlns="http://www.w3.org/2000/svg"
   xmlns:svg="http://www.w3.org/2000/svg">
  <defs
     id="defs1" />
  <sodipodi:namedview
     id="namedview1"
     pagecolor="#ffffff"
     bordercolor="#000000"
     borderopacity="0.25"
     inkscape:showpageshadow="2"
     inkscape:pageopacity="0.0"
     inkscape:pagecheckerboard="0"
     inkscape:deskcolor="#d1d1d1">
    <inkscape:page
       x="0"
       y="0"
       inkscape:label="1"
       id="page1"
       width="739.26666"
       height="153.37334"
       margin="0"
       bleed="0" />
  </sodipodi:namedview>
  <g
     id="g1"
     inkscape:groupmode="layer"
     inkscape:label="1">
    <g
       id="group-R5">
      <path
         id="path2"
         d="m 164.883,86.8789 c 0,41.5191 -28.731,75.6011 -68.1799,75.6011 -39.4492,0 -67.7226,-33.601 -67.7226,-75.1206 v -0.4805 c 0,-41.5195 28.7304,-75.5976 68.1797,-75.5976 39.4488,0 67.7228,33.5976 67.7228,75.1171 z M 96.7031,0 C 48.3633,0 16.6641,40.5586 16.6641,86.3984 v 0.4805 c 0,45.8401 32.1523,86.8831 80.4961,86.8831 48.3398,0 80.0348,-40.551 80.0348,-86.4026 0.231,-0.2305 0.231,-0.2305 0,-0.4805 C 177.195,41.0508 145.043,0 96.7031,0"
         style="fill:#231f20;fill-opacity:1;fill-rule:nonzero;stroke:none"
         transform="matrix(0.13333333,0,0,-0.13333333,0,153.37333)" />
      <path
         id="path3"
         d="m 325.16,122.641 c 0,22.558 -16.871,36.718 -45.832,36.718 H 224.832 V 83.7617 h 53.813 c 26.679,0 46.515,14.1602 46.515,38.3983 z M 327.898,2.87891 277.047,72.4883 H 224.832 V 2.87891 H 212.973 V 170.879 h 67.039 c 34.433,0 57.008,-19.684 57.008,-47.758 v -0.48 c 0,-28.0824 -19.84,-44.1527 -46.747,-48.0004 L 342.949,2.87891 h -15.051"
         style="fill:#231f20;fill-opacity:1;fill-rule:nonzero;stroke:none"
         transform="matrix(0.13333333,0,0,-0.13333333,0,153.37333)" />
      <path
         id="path4"
         d="m 446.449,0 c -50.39,0 -80.265,39.1289 -80.265,86.3984 v 0.4805 c 0,45.3591 31.242,86.8831 78.898,86.8831 25.996,0 42.414,-8.164 58.375,-22.086 l -7.754,-9.367 C 483.164,153.84 468.57,162.48 444.398,162.48 405.633,162.48 378.5,127.922 378.5,87.3594 v -0.4805 c 0,-43.4375 25.766,-75.8281 68.406,-75.8281 20.293,0 39.223,8.8711 50.852,19.1875 v 48.25 h -53.36 V 90 H 509.16 V 25.2109 C 494.793,11.7695 472.445,0 446.449,0"
         style="fill:#231f20;fill-opacity:1;fill-rule:nonzero;stroke:none"
         transform="matrix(0.13333333,0,0,-0.13333333,0,153.37333)" />
      <path
         id="path5"
         d="M 613.574,158.398 571.387,61.2109 h 84.144 z M 680.84,2.87891 660.547,49.9219 H 566.371 L 546.078,2.87891 h -12.316 l 74.34,169.19909 h 11.402 L 693.84,2.87891 h -13"
         style="fill:#231f20;fill-opacity:1;fill-rule:nonzero;stroke:none"
         transform="matrix(0.13333333,0,0,-0.13333333,0,153.37333)" />
      <path
         id="path6"
         d="M 846.824,2.87891 734.406,152.156 V 2.87891 H 723.004 V 170.879 h 11.172 L 844.316,24.7188 V 170.879 h 11.399 V 2.87891 h -8.891"
         style="fill:#231f20;fill-opacity:1;fill-rule:nonzero;stroke:none"
         transform="matrix(0.13333333,0,0,-0.13333333,0,153.37333)" />
      <path
         id="path7"
         d="M 900.16,2.87891 V 170.879 h 11.856 V 2.87891 H 900.16"
         style="fill:#231f20;fill-opacity:1;fill-rule:nonzero;stroke:none"
         transform="matrix(0.13333333,0,0,-0.13333333,0,153.37333)" />
      <path
         id="path8"
         d="m 1010.51,0.488281 c -25.533,0 -45.143,8.871099 -64.299,26.871119 l 7.754,9.3594 c 17.558,-17.0274 33.746,-24.9493 57.235,-24.9493 23.94,0 40.36,14.1524 40.36,33.3594 v 0.4727 c 0,17.7578 -8.89,28.0781 -45.15,35.7578 -38.308,8.1601 -53.812,21.8516 -53.812,47.2816 v 0.48 c 0,24.957 21.66,44.16 51.302,44.16 23.26,0 38.54,-6.722 54.73,-20.402 l -7.53,-9.84 c -15.05,13.684 -30.1,18.965 -47.66,18.965 -23.479,0 -38.987,-14.164 -38.987,-31.695 v -0.469 c 0,-17.758 8.664,-28.559 46.517,-36.7189 36.94,-7.9102 52.45,-21.8398 52.45,-46.3203 v -0.4805 c 0,-27.1094 -22.12,-45.832019 -52.91,-45.832019"
         style="fill:#231f20;fill-opacity:1;fill-rule:nonzero;stroke:none"
         transform="matrix(0.13333333,0,0,-0.13333333,0,153.37333)" />
      <path
         id="path9"
         d="m 1163.96,158.398 -42.19,-97.1871 h 84.15 z m 67.27,-155.51909 -20.3,47.04299 h -94.17 l -20.3,-47.04299 h -12.31 l 74.34,169.19909 h 11.4 L 1244.23,2.87891 h -13"
         style="fill:#231f20;fill-opacity:1;fill-rule:nonzero;stroke:none"
         transform="matrix(0.13333333,0,0,-0.13333333,0,153.37333)" />
      <path
         id="path10"
         d="M 1329.48,159.359 V 2.87891 h -11.85 V 159.359 h -55.64 v 11.52 h 123.13 v -11.52 h -55.64"
         style="fill:#231f20;fill-opacity:1;fill-rule:nonzero;stroke:none"
         transform="matrix(0.13333333,0,0,-0.13333333,0,153.37333)" />
      <path
         id="path11"
         d="M 1418.17,2.87891 V 170.879 h 11.86 V 2.87891 h -11.86"
         style="fill:#231f20;fill-opacity:1;fill-rule:nonzero;stroke:none"
         transform="matrix(0.13333333,0,0,-0.13333333,0,153.37333)" />
      <path
         id="path12"
         d="m 1615.63,86.8789 c 0,41.5191 -28.73,75.6011 -68.18,75.6011 -39.45,0 -67.72,-33.601 -67.72,-75.1206 v -0.4805 c 0,-41.5195 28.73,-75.5976 68.18,-75.5976 39.44,0 67.72,33.5976 67.72,75.1171 z M 1547.45,0 c -48.35,0 -80.04,40.5586 -80.04,86.3984 v 0.4805 c 0,45.8401 32.15,86.8831 80.5,86.8831 48.34,0 80.03,-40.551 80.03,-86.4026 0.23,-0.2305 0.23,-0.2305 0,-0.4805 C 1627.94,41.0508 1595.79,0 1547.45,0"
         style="fill:#231f20;fill-opacity:1;fill-rule:nonzero;stroke:none"
         transform="matrix(0.13333333,0,0,-0.13333333,0,153.37333)" />
      <path
         id="path13"
         d="M 1787.54,2.87891 1675.12,152.156 V 2.87891 h -11.4 V 170.879 h 11.17 L 1785.03,24.7188 V 170.879 h 11.4 V 2.87891 h -8.89"
         style="fill:#231f20;fill-opacity:1;fill-rule:nonzero;stroke:none"
         transform="matrix(0.13333333,0,0,-0.13333333,0,153.37333)" />
      <path
         id="path14"
         d="m 1893.32,0.488281 c -25.54,0 -45.15,8.871099 -64.3,26.871119 l 7.75,9.3594 c 17.56,-17.0274 33.74,-24.9493 57.23,-24.9493 23.94,0 40.36,14.1524 40.36,33.3594 v 0.4727 c 0,17.7578 -8.89,28.0781 -45.15,35.7578 -38.3,8.1601 -53.81,21.8516 -53.81,47.2816 v 0.48 c 0,24.957 21.66,44.16 51.31,44.16 23.25,0 38.53,-6.722 54.72,-20.402 l -7.52,-9.84 c -15.05,13.684 -30.1,18.965 -47.66,18.965 -23.48,0 -38.99,-14.164 -38.99,-31.695 v -0.469 c 0,-17.758 8.66,-28.559 46.52,-36.7189 36.93,-7.9102 52.44,-21.8398 52.44,-46.3203 v -0.4805 c 0,-27.1094 -22.12,-45.832019 -52.9,-45.832019"
         style="fill:#231f20;fill-opacity:1;fill-rule:nonzero;stroke:none"
         transform="matrix(0.13333333,0,0,-0.13333333,0,153.37333)" />
      <path
         id="path15"
         d="m 2107.41,0.238281 c -38.31,0 -65.44,25.453119 -65.44,72.480519 v 98.1602 h 11.85 V 73.9219 c 0,-39.6016 20.3,-62.3906 54.05,-62.3906 32.38,0 53.13,20.6289 53.13,61.1875 v 98.1602 h 11.85 V 74.1602 c 0,-48.2383 -26.67,-73.921919 -65.44,-73.921919"
         style="fill:#231f20;fill-opacity:1;fill-rule:nonzero;stroke:none"
         transform="matrix(0.13333333,0,0,-0.13333333,0,153.37333)" />
      <path
         id="path16"
         d="M 2337.02,2.87891 2224.6,152.156 V 2.87891 h -11.41 V 170.879 h 11.18 L 2334.5,24.7188 V 170.879 h 11.41 V 2.87891 h -8.89"
         style="fill:#231f20;fill-opacity:1;fill-rule:nonzero;stroke:none"
         transform="matrix(0.13333333,0,0,-0.13333333,0,153.37333)" />
      <path
         id="path17"
         d="M 2390.35,2.87891 V 170.879 h 11.85 V 2.87891 h -11.85"
         style="fill:#231f20;fill-opacity:1;fill-rule:nonzero;stroke:none"
         transform="matrix(0.13333333,0,0,-0.13333333,0,153.37333)" />
      <path
         id="path18"
         d="M 2446.66,2.87891 V 170.879 h 113.56 v -11.52 h -101.7 V 93.3594 h 91.44 V 81.8516 h -91.44 V 14.4102 h 102.84 V 2.87891 h -114.7"
         style="fill:#231f20;fill-opacity:1;fill-rule:nonzero;stroke:none"
         transform="matrix(0.13333333,0,0,-0.13333333,0,153.37333)" />
      <path
         id="path19"
         d="m 2648.9,0.488281 c -25.54,0 -45.15,8.871099 -64.3,26.871119 l 7.75,9.3594 c 17.56,-17.0274 33.75,-24.9493 57.24,-24.9493 23.94,0 40.35,14.1524 40.35,33.3594 v 0.4727 c 0,17.7578 -8.89,28.0781 -45.14,35.7578 -38.31,8.1601 -53.82,21.8516 -53.82,47.2816 v 0.48 c 0,24.957 21.66,44.16 51.31,44.16 23.26,0 38.53,-6.722 54.73,-20.402 l -7.53,-9.84 c -15.05,13.684 -30.1,18.965 -47.66,18.965 -23.48,0 -38.99,-14.164 -38.99,-31.695 v -0.469 c 0,-17.758 8.66,-28.559 46.52,-36.7189 36.94,-7.9102 52.44,-21.8398 52.44,-46.3203 v -0.4805 c 0,-27.1094 -22.12,-45.832019 -52.9,-45.832019"
         style="fill:#231f20;fill-opacity:1;fill-rule:nonzero;stroke:none"
         transform="matrix(0.13333333,0,0,-0.13333333,0,153.37333)" />
      <path
         id="path20"
         d="m 2905.41,118.801 c 0,26.64 -19.61,40.558 -48.34,40.558 h -45.15 V 77.0391 h 43.78 c 29.64,0 49.71,16.3203 49.71,41.2699 z m -50.4,-53.2815 h -43.09 V 2.87891 h -11.86 V 170.879 h 57.92 c 35.12,0 59.28,-18.953 59.28,-51.359 v -0.481 c 0,-35.2773 -28.95,-53.5195 -62.25,-53.5195"
         style="fill:#231f20;fill-opacity:1;fill-rule:nonzero;stroke:none"
         transform="matrix(0.13333333,0,0,-0.13333333,0,153.37333)" />
      <path
         id="path21"
         d="m 3088.96,86.8789 c 0,41.5191 -28.74,75.6011 -68.19,75.6011 -39.45,0 -67.72,-33.601 -67.72,-75.1206 v -0.4805 c 0,-41.5195 28.73,-75.5976 68.18,-75.5976 39.45,0 67.73,33.5976 67.73,75.1171 z M 3020.77,0 c -48.34,0 -80.03,40.5586 -80.03,86.3984 v 0.4805 c 0,45.8401 32.15,86.8831 80.49,86.8831 48.34,0 80.04,-40.551 80.04,-86.4026 0.23,-0.2305 0.23,-0.2305 0,-0.4805 C 3101.27,41.0508 3069.11,0 3020.77,0"
         style="fill:#231f20;fill-opacity:1;fill-rule:nonzero;stroke:none"
         transform="matrix(0.13333333,0,0,-0.13333333,0,153.37333)" />
      <path
         id="path22"
         d="m 3199.97,0.238281 c -38.3,0 -65.44,25.453119 -65.44,72.480519 v 98.1602 h 11.86 V 73.9219 c 0,-39.6016 20.29,-62.3906 54.04,-62.3906 32.38,0 53.13,20.6289 53.13,61.1875 v 98.1602 h 11.86 V 74.1602 c 0,-48.2383 -26.68,-73.921919 -65.45,-73.921919"
         style="fill:#231f20;fill-opacity:1;fill-rule:nonzero;stroke:none"
         transform="matrix(0.13333333,0,0,-0.13333333,0,153.37333)" />
      <path
         id="path23"
         d="m 3417.95,122.641 c 0,22.558 -16.88,36.718 -45.84,36.718 h -54.5 V 83.7617 h 53.82 c 26.67,0 46.52,14.1602 46.52,38.3983 z m 2.73,-119.76209 -50.85,69.60939 h -52.22 V 2.87891 h -11.86 V 170.879 h 67.05 c 34.43,0 57,-19.684 57,-47.758 v -0.48 c 0,-28.0824 -19.84,-44.1527 -46.74,-48.0004 l 52.67,-71.76169 h -15.05"
         style="fill:#231f20;fill-opacity:1;fill-rule:nonzero;stroke:none"
         transform="matrix(0.13333333,0,0,-0.13333333,0,153.37333)" />
      <path
         id="path24"
         d="M 3529.88,2.87891 V 170.879 h 11.85 V 14.4102 h 93.72 V 2.87891 h -105.57"
         style="fill:#231f20;fill-opacity:1;fill-rule:nonzero;stroke:none"
         transform="matrix(0.13333333,0,0,-0.13333333,0,153.37333)" />
      <path
         id="path25"
         d="m 3668.72,150.48 h -6.15 v 20.399 h 15.05 v -17.762 c 0,-14.879 -5.25,-22.808 -18.93,-28.316 l -2.73,6 c 9.8,5.277 13.45,10.558 12.76,19.679"
         style="fill:#231f20;fill-opacity:1;fill-rule:nonzero;stroke:none"
         transform="matrix(0.13333333,0,0,-0.13333333,0,153.37333)" />
      <path
         id="path26"
         d="M 3715.93,2.87891 V 170.879 h 11.85 V 2.87891 h -11.85"
         style="fill:#231f20;fill-opacity:1;fill-rule:nonzero;stroke:none"
         transform="matrix(0.13333333,0,0,-0.13333333,0,153.37333)" />
      <path
         id="path27"
         d="M 3896.05,2.87891 3783.64,152.156 V 2.87891 h -11.4 V 170.879 h 11.17 L 3893.54,24.7188 V 170.879 h 11.41 V 2.87891 h -8.9"
         style="fill:#231f20;fill-opacity:1;fill-rule:nonzero;stroke:none"
         transform="matrix(0.13333333,0,0,-0.13333333,0,153.37333)" />
      <path
         id="path28"
         d="m 4073.43,86.8789 c 0,39.8401 -28.04,72.4801 -72.51,72.4801 h -41.28 V 14.4102 h 41.28 c 44.47,0 72.51,31.9101 72.51,71.9882 z M 4000.92,2.87891 h -53.14 V 170.879 h 53.14 c 50.16,0 84.83,-36.238 84.83,-83.5196 v -0.4805 c 0,-47.2773 -34.67,-83.99999 -84.83,-83.99999"
         style="fill:#231f20;fill-opacity:1;fill-rule:nonzero;stroke:none"
         transform="matrix(0.13333333,0,0,-0.13333333,0,153.37333)" />
      <path
         id="path29"
         d="m 4168.28,186.48 20.06,31.915 13.91,-7.2 -24.4,-24.715 z M 4121.53,2.87891 V 170.879 h 113.56 v -11.52 h -101.7 V 93.3594 h 91.43 V 81.8516 h -91.43 V 14.4102 h 102.84 V 2.87891 h -114.7"
         style="fill:#231f20;fill-opacity:1;fill-rule:nonzero;stroke:none"
         transform="matrix(0.13333333,0,0,-0.13333333,0,153.37333)" />
      <path
         id="path30"
         d="m 4375.07,118.801 c 0,26.64 -19.61,40.558 -48.34,40.558 h -45.15 V 77.0391 h 43.78 c 29.65,0 49.71,16.3203 49.71,41.2699 z m -50.39,-53.2815 h -43.1 V 2.87891 h -11.86 V 170.879 h 57.92 c 35.12,0 59.29,-18.953 59.29,-51.359 v -0.481 c 0,-35.2773 -28.96,-53.5195 -62.25,-53.5195"
         style="fill:#231f20;fill-opacity:1;fill-rule:nonzero;stroke:none"
         transform="matrix(0.13333333,0,0,-0.13333333,0,153.37333)" />
      <path
         id="path31"
         d="M 4417.47,2.87891 V 170.879 h 113.56 v -11.52 H 4429.32 V 93.3594 h 91.44 V 81.8516 h -91.44 V 14.4102 h 102.85 V 2.87891 h -114.7"
         style="fill:#231f20;fill-opacity:1;fill-rule:nonzero;stroke:none"
         transform="matrix(0.13333333,0,0,-0.13333333,0,153.37333)" />
      <path
         id="path32"
         d="M 4689.49,2.87891 4577.07,152.156 V 2.87891 h -11.39 V 170.879 h 11.17 L 4686.98,24.7188 V 170.879 h 11.41 V 2.87891 h -8.9"
         style="fill:#231f20;fill-opacity:1;fill-rule:nonzero;stroke:none"
         transform="matrix(0.13333333,0,0,-0.13333333,0,153.37333)" />
      <path
         id="path33"
         d="m 4866.87,86.8789 c 0,39.8401 -28.05,72.4801 -72.52,72.4801 h -41.27 V 14.4102 h 41.27 c 44.47,0 72.52,31.9101 72.52,71.9882 z M 4794.35,2.87891 h -53.13 V 170.879 h 53.13 c 50.17,0 84.83,-36.238 84.83,-83.5196 v -0.4805 c 0,-47.2773 -34.66,-83.99999 -84.83,-83.99999"
         style="fill:#231f20;fill-opacity:1;fill-rule:nonzero;stroke:none"
         transform="matrix(0.13333333,0,0,-0.13333333,0,153.37333)" />
      <path
         id="path34"
         d="m 4981.1,158.398 -42.19,-97.1871 h 84.14 z M 5048.36,2.87891 5028.07,49.9219 h -94.18 L 4913.6,2.87891 h -12.32 l 74.34,169.19909 h 11.41 L 5061.36,2.87891 h -13"
         style="fill:#231f20;fill-opacity:1;fill-rule:nonzero;stroke:none"
         transform="matrix(0.13333333,0,0,-0.13333333,0,153.37333)" />
      <path
         id="path35"
         d="M 5214.34,2.87891 5101.93,152.156 V 2.87891 h -11.41 V 170.879 h 11.18 L 5211.83,24.7188 V 170.879 h 11.41 V 2.87891 h -8.9"
         style="fill:#231f20;fill-opacity:1;fill-rule:nonzero;stroke:none"
         transform="matrix(0.13333333,0,0,-0.13333333,0,153.37333)" />
      <path
         id="path36"
         d="m 5338.36,0 c -45.61,0 -79.35,38.1602 -79.35,86.3984 v 0.4805 c 0,47.5191 33.74,86.8831 79.81,86.8831 28.5,0 45.61,-11.039 62.02,-26.883 l -8.44,-9.117 c -13.9,14.164 -29.87,24.718 -53.81,24.718 -38.31,0 -67.27,-32.878 -67.27,-75.1206 v -0.4805 c 0,-42.4687 29.42,-75.5976 67.5,-75.5976 23.03,0 38.76,9.3593 54.95,26.1601 l 7.98,-8.1601 C 5384.88,11.7695 5366.64,0 5338.36,0"
         style="fill:#231f20;fill-opacity:1;fill-rule:nonzero;stroke:none"
         transform="matrix(0.13333333,0,0,-0.13333333,0,153.37333)" />
      <path
         id="path37"
         d="M 5429.78,2.87891 V 170.879 h 113.56 v -11.52 h -101.7 V 93.3594 h 91.43 V 81.8516 h -91.43 V 14.4102 h 102.84 V 2.87891 h -114.7"
         style="fill:#231f20;fill-opacity:1;fill-rule:nonzero;stroke:none"
         transform="matrix(0.13333333,0,0,-0.13333333,0,153.37333)" />
      <path
         id="path38"
         d="M 741.754,636.949 V 1044.16 H 979.707 V 640.113 c 0,-91.781 44.993,-130.812 107.983,-130.812 62.99,0 107.98,35.867 107.98,125.539 v 409.32 h 237.95 V 642.227 c 0,-252.137 -138.97,-351.301 -347.93,-351.301 -208.963,0 -343.936,101.277 -343.936,346.023"
         style="fill:#231f20;fill-opacity:1;fill-rule:nonzero;stroke:none"
         transform="matrix(0.13333333,0,0,-0.13333333,0,153.37333)" />
      <path
         id="path39"
         d="m 1490.94,1044.16 h 233.95 V 305.695 h -233.95 v 738.465"
         style="fill:#231f20;fill-opacity:1;fill-rule:nonzero;stroke:none"
         transform="matrix(0.13333333,0,0,-0.13333333,0,153.37333)" />
      <path
         id="path40"
         d="m 24.9844,714.25 c 69.5078,68.289 140.0586,54.813 207.4536,0 64.109,-52.137 67.199,-128.035 67.347,-185.988 h 40.344 C 349.293,674.27 310,701.559 280.875,763.668 255.387,818.051 210.086,915.887 311.672,1044.35 131.93,1015.74 0,860.555 0,670.734 v -1.371 c 3.58203,16.242 11.5703,31.707 24.9844,44.887"
         style="fill:#231f20;fill-opacity:1;fill-rule:nonzero;stroke:none"
         transform="matrix(0.13333333,0,0,-0.13333333,0,153.37333)" />
      <path
         id="path41"
         d="M 460.625,763.668 C 431.496,701.559 392.207,674.27 401.375,528.262 h 40.309 c 0.152,57.953 3.242,133.851 67.343,185.988 67.399,54.813 137.95,68.289 207.453,0 13.739,-13.496 21.762,-29.395 25.211,-46.066 0.004,0.855 0.063,1.695 0.063,2.55 v 2.079 c 0,190.71 -131.563,344.817 -312.313,372.037 102.102,-128.709 56.707,-226.733 31.184,-281.182"
         style="fill:#231f20;fill-opacity:1;fill-rule:nonzero;stroke:none"
         transform="matrix(0.13333333,0,0,-0.13333333,0,153.37333)" />
      <path
         id="path42"
         d="m 619.598,533.652 c 17.902,21.563 6.32,55.707 -5.262,68.282 -11.582,12.582 -60.023,42.234 -100.039,-13.473 -13.656,-20.207 -17.672,-40.984 -18.563,-60.199 h 71.575 V 463.566 H 414.422 c 0.555,-28.808 7.398,-51.832 67.266,-79.074 -7.032,-26.351 -43.52,-47.914 -67.403,-44.32 0,-13.895 -4.742,-30.715 -15.422,-46.621 176.172,13.211 313.313,145.996 338.672,318.992 -16.547,-48.715 -64.332,-88.883 -117.937,-78.891"
         style="fill:#231f20;fill-opacity:1;fill-rule:nonzero;stroke:none"
         transform="matrix(0.13333333,0,0,-0.13333333,0,153.37333)" />
      <path
         id="path43"
         d="m 327.215,340.172 c -23.871,-3.594 -60.371,17.969 -67.399,44.32 59.86,27.242 66.707,50.266 67.262,79.074 H 177.684 v 64.696 h 68.046 c -0.886,19.215 -4.898,39.992 -18.554,60.199 -40.016,55.707 -88.457,26.055 -100.039,13.473 -11.582,-12.575 -23.168,-46.719 -5.27,-68.282 C 68.2344,523.656 20.4297,563.867 3.91016,612.617 28.2695,438.313 165.141,305.754 342.738,293.402 c -10.754,15.95 -15.523,32.832 -15.523,46.77"
         style="fill:#231f20;fill-opacity:1;fill-rule:nonzero;stroke:none"
         transform="matrix(0.13333333,0,0,-0.13333333,0,153.37333)" />
      <path
         id="path44"
         d="m 3496.05,1150.27 h 53.23 l -88.45,-105.42 h -53.23 l 88.45,105.42"
         style="fill:#231f20;fill-opacity:1;fill-rule:evenodd;stroke:none"
         transform="matrix(0.13333333,0,0,-0.13333333,0,153.37333)" />
      <path
         id="path45"
         d="m 2142.95,1027.94 c -191.46,0 -335.85,-151.202 -335.85,-351.71 v -2.121 c 0,-173.921 126.42,-353.828 337.97,-353.828 84.24,0 160.38,28.606 220.77,82.821 l -163.31,142.226 25.36,28.977 165.12,-143.957 c 56.74,64.578 87.9,150.062 87.9,241.648 v 2.113 c 0,173.934 -126.41,353.831 -337.96,353.831 z m 360.48,-744.924 -108.55,94.711 c -68.89,-61.918 -155.47,-94.602 -250.87,-94.602 -214.46,0 -376.18,167.633 -376.18,389.93 v 2.117 c 0,222.297 161.72,389.938 376.18,389.938 214.45,0 376.18,-167.641 376.18,-389.938 v -2.117 c 0,-100.508 -34.82,-195.344 -98.21,-268.008 l 106.8,-93.059 -25.35,-28.972"
         style="fill:#231f20;fill-opacity:1;fill-rule:nonzero;stroke:none"
         transform="matrix(0.13333333,0,0,-0.13333333,0,153.37333)" />
      <path
         id="path46"
         d="m 2845.44,284.184 c -192.5,0 -307.42,129.949 -307.42,347.613 v 420.613 h 39.28 V 631.797 c 0,-197.301 98.12,-310.453 269.19,-310.453 169.74,0 267.08,112.765 267.08,309.39 v 421.676 h 39.27 V 631.797 c 0,-217.664 -114.92,-347.613 -307.4,-347.613"
         style="fill:#231f20;fill-opacity:1;fill-rule:nonzero;stroke:none"
         transform="matrix(0.13333333,0,0,-0.13333333,0,153.37333)" />
      <path
         id="path47"
         d="m 3716.75,295.816 h -538.64 v 756.594 h 533.35 v -37.16 H 3217.38 V 694.809 h 448.59 V 657.652 H 3217.38 V 332.98 h 499.37 v -37.164"
         style="fill:#231f20;fill-opacity:1;fill-rule:nonzero;stroke:none"
         transform="matrix(0.13333333,0,0,-0.13333333,0,153.37333)" />
      <path
         id="path48"
         d="m 3774.93,696.926 h 289.3 c 93.82,0 194.07,41.535 194.07,158.101 v 2.118 c 0,97.523 -81.26,158.105 -212.06,158.105 h -271.31 z m 0,-363.946 h 289.3 c 148.21,0 233.21,58.786 233.21,161.278 v 2.113 c 0,112.867 -108.1,163.395 -215.23,163.395 h -307.28 z m 289.3,-37.164 h -328.57 v 756.594 h 311.64 c 87.99,0 157.26,-22.76 200.32,-65.824 33.15,-33.145 49.96,-76.344 49.96,-128.387 v -2.113 c 0,-81 -44.47,-144.934 -118.1,-173.066 95.28,-25.125 157.24,-96.7 157.24,-185.59 v -2.114 c 0,-126.785 -99.32,-199.5 -272.49,-199.5"
         style="fill:#231f20;fill-opacity:1;fill-rule:nonzero;stroke:none"
         transform="matrix(0.13333333,0,0,-0.13333333,0,153.37333)" />
      <path
         id="path49"
         d="m 4893.19,295.816 h -538.64 v 756.594 h 533.36 v -37.16 H 4393.83 V 694.809 h 448.58 V 657.652 H 4393.83 V 332.98 h 499.36 v -37.164"
         style="fill:#231f20;fill-opacity:1;fill-rule:nonzero;stroke:none"
         transform="matrix(0.13333333,0,0,-0.13333333,0,153.37333)" />
      <path
         id="path50"
         d="m 5242.78,283.125 c -207.38,0 -369.83,170.813 -369.83,388.871 v 2.113 c 0,219.25 163.38,391.001 371.95,391.001 149.04,0 223.47,-59.12 286.94,-119.657 l 5.92,-5.648 -27.21,-27.219 -5.65,5.449 c -59.2,57.082 -131.8,109.905 -261.06,109.905 -185.95,0 -331.61,-154.956 -331.61,-352.768 v -2.117 c 0,-197.821 145.66,-352.774 331.61,-352.774 127.07,0 213.67,64.207 263.93,118.071 l 5.48,5.863 28.66,-26.871 -5.57,-5.84 C 5455.15,326.316 5356.38,283.125 5242.78,283.125"
         style="fill:#231f20;fill-opacity:1;fill-rule:nonzero;stroke:none"
         transform="matrix(0.13333333,0,0,-0.13333333,0,153.37333)" />
    </g>
  </g>
</svg>
